# xmcd
#
# Track frame offsets:
#	150
#	10007
#	20685
#	29802
#	39701
#	51898
#	61945
#	73177
#	84690
#	93365
#	102846
#	110708
#	123977
#	133174
#	150302
#	164149
#	175105
#	184771
#	199031
#	211655
#	230514
#	243159
#	254218
#	266130
#	290009
#	301416
#	317189
#
# Disc length: 4602 seconds
# Revision: 0
# Processed by: cddbd v1.5.2PL0 Copyright (c) Steve Scherf et al.
# Submitted via: dBpowerAMP V12.0
#
DISCID=9211f81b
DTITLE=Johnny Cash - The Legend - Old Favorites And New - Disc 2
DYEAR=2005
DGENRE=Country
TTITLE0=Hey Porter
TTITLE1=Cry, Cry, Cry
TTITLE2=Luther Played The Boogie
TTITLE3=Get Rhythm
TTITLE4=Give My Love To Rose
TTITLE5=I Was There When It Happened
TTITLE6=Big River
TTITLE7=I Still Miss Someone
TTITLE8=Pickin' Time
TTITLE9=The Man On The Hill
TTITLE10=Five Feet High And Rising
TTITLE11=Tennessee Flat-Top Box
TTITLE12=I Got Stripes
TTITLE13=Troublesome Waters
TTITLE14=The Long Black Veil
TTITLE15=Dark As A Dungeon
TTITLE16=The Wall
TTITLE17=25 Minutes To Go
TTITLE18=Cocaine Blues [Live Version]
TTITLE19=Doin' My Time
TTITLE20=I Will Rock And Roll With You
TTITLE21=Without Love
TTITLE22=The Big Light
TTITLE23=Highway Patrolman
TTITLE24=I'm Never Gonna Roam Again
TTITLE25=When I'm Gray
TTITLE26=Forever Young
EXTD=
EXTT0=
EXTT1=
EXTT2=
EXTT3=
EXTT4=
EXTT5=
EXTT6=
EXTT7=
EXTT8=
EXTT9=
EXTT10=
EXTT11=
EXTT12=
EXTT13=
EXTT14=
EXTT15=
EXTT16=
EXTT17=
EXTT18=
EXTT19=
EXTT20=
EXTT21=
EXTT22=
EXTT23=
EXTT24=
EXTT25=
EXTT26=
PLAYORDER=
